<?xml version="1.0" standalone="no"?>
<!DOCTYPE svg PUBLIC "-//W3C//DTD SVG 20010904//EN"
 "http://www.w3.org/TR/2001/REC-SVG-20010904/DTD/svg10.dtd">
<svg version="1.0" xmlns="http://www.w3.org/2000/svg"
 width="100.000000pt" height="100.000000pt" viewBox="0 0 100.000000 100.000000"
 preserveAspectRatio="xMidYMid meet">

<g transform="translate(0.000000,100.000000) scale(0.100000,-0.100000)"
fill="#1d1d1d" stroke="none">
<path d="M386 944 c-171 -41 -308 -192 -338 -371 -51 -303 217 -573 521 -526
98 15 171 52 245 123 340 326 31 885 -428 774z m132 -357 l3 -66 67 -3 c52 -2
67 -6 67 -18 0 -12 -15 -16 -67 -18 l-67 -3 -3 -67 c-2 -52 -6 -67 -18 -67
-12 0 -16 15 -18 67 l-3 67 -67 3 c-52 2 -67 6 -67 18 0 12 15 16 68 18 l67 3
0 63 c0 34 3 66 7 70 17 17 28 -6 31 -67z"/>
</g>
</svg>
