<?xml version="1.0" standalone="no"?>
<!DOCTYPE svg PUBLIC "-//W3C//DTD SVG 20010904//EN"
 "http://www.w3.org/TR/2001/REC-SVG-20010904/DTD/svg10.dtd">
<svg version="1.0" xmlns="http://www.w3.org/2000/svg"
 width="512.000000pt" height="512.000000pt" viewBox="0 0 512.000000 512.000000"
 preserveAspectRatio="xMidYMid meet">

<g transform="translate(0.000000,512.000000) scale(0.100000,-0.100000)"
fill="#000000" stroke="none">
<path d="M1075 5104 c-157 -34 -266 -95 -390 -219 -100 -99 -154 -189 -197
-325 l-23 -75 0 -1925 0 -1925 23 -75 c89 -282 310 -485 595 -544 68 -14 261
-16 1719 -16 1101 0 1655 4 1680 10 99 28 178 134 178 240 0 103 -70 202 -165
233 l-40 14 -3 325 -2 325 65 32 c69 34 108 76 131 138 11 31 13 358 13 1823
1 1775 0 1785 -20 1830 -25 55 -62 95 -114 123 l-40 22 -1670 2 c-1449 1
-1679 0 -1740 -13z m225 -659 l0 -526 25 -24 c13 -14 36 -25 50 -25 14 0 37
11 50 25 l25 24 0 526 0 525 1490 0 c1607 0 1532 2 1560 -49 7 -13 10 -593 10
-1785 l0 -1766 -29 -32 -29 -33 -1501 -3 -1501 -2 0 1195 0 1196 -25 24 c-13
14 -36 25 -50 25 -14 0 -37 -11 -50 -25 l-25 -24 0 -1194 0 -1194 -72 -6
c-149 -13 -306 -123 -371 -261 -40 -84 -50 -136 -45 -239 3 -82 8 -102 41
-170 43 -92 126 -181 205 -221 105 -53 134 -56 560 -56 258 0 400 4 413 11 44
23 44 104 1 126 -10 4 -201 10 -427 13 l-410 5 -50 25 c-154 75 -224 254 -163
417 29 77 104 152 181 181 l58 22 1539 0 1540 0 0 -325 0 -325 -1024 0 c-1020
0 -1023 0 -1050 -21 -33 -26 -36 -79 -6 -109 20 -20 33 -20 1115 -20 1191 0
1137 3 1163 -55 25 -55 11 -105 -38 -130 -26 -13 -225 -15 -1663 -15 -1593 0
-1636 0 -1711 20 -229 58 -408 237 -460 460 -14 57 -16 292 -16 1930 0 2066
-4 1924 66 2067 101 203 320 340 552 342 l72 1 0 -525z"/>
<path d="M2445 4278 c-19 -18 -77 -158 -245 -601 -121 -317 -220 -586 -220
-597 0 -28 44 -70 72 -70 45 0 64 27 113 155 l48 125 293 0 293 0 19 -52 c11
-29 32 -84 46 -123 28 -76 54 -105 93 -105 29 0 73 41 73 70 0 11 -97 278
-215 593 -178 471 -221 577 -246 600 -37 34 -87 36 -124 5z m179 -528 c64
-167 114 -305 112 -307 -2 -2 -107 -2 -234 -1 l-230 3 117 307 c64 168 117
305 118 304 1 -1 54 -139 117 -306z"/>
<path d="M3850 3870 c-13 -13 -20 -33 -20 -61 0 -22 -3 -39 -7 -37 -146 74
-144 73 -243 73 -116 -1 -186 -25 -258 -91 -124 -111 -169 -264 -123 -415 79
-251 359 -358 588 -223 l43 25 0 -45 c0 -36 5 -48 26 -65 30 -24 43 -26 78
-10 45 21 47 41 44 446 -3 358 -4 382 -22 402 -25 27 -79 28 -106 1z m-142
-207 c92 -56 138 -174 108 -276 -54 -185 -289 -242 -417 -100 -117 130 -78
319 81 393 66 30 163 23 228 -17z"/>
<path d="M1950 2600 c-30 -30 -27 -83 6 -109 27 -21 30 -21 1026 -21 l999 0
24 25 c32 31 33 74 2 103 l-23 22 -1007 0 c-994 0 -1007 0 -1027 -20z"/>
<path d="M2337 2109 c-46 -27 -41 -105 9 -128 18 -8 204 -11 638 -11 605 0
614 0 640 21 33 26 36 79 6 109 -20 20 -33 20 -647 20 -420 -1 -634 -4 -646
-11z"/>
</g>
</svg>
