<?xml version="1.0" standalone="no"?>
<!DOCTYPE svg PUBLIC "-//W3C//DTD SVG 20010904//EN"
 "http://www.w3.org/TR/2001/REC-SVG-20010904/DTD/svg10.dtd">
<svg version="1.0" xmlns="http://www.w3.org/2000/svg"
 width="512.000000pt" height="512.000000pt" viewBox="0 0 512.000000 512.000000"
 preserveAspectRatio="xMidYMid meet">

<g transform="translate(0.000000,512.000000) scale(0.100000,-0.100000)"
fill="#8c8c8c" stroke="none">
<path d="M1422 5109 c-145 -24 -277 -92 -377 -193 -82 -84 -136 -170 -172
-281 -21 -66 -26 -99 -26 -185 0 -63 6 -122 14 -148 l14 -43 -65 -67 c-74 -76
-138 -189 -166 -292 -23 -89 -23 -236 0 -317 l19 -63 -61 -65 c-151 -161 -205
-426 -128 -625 4 -11 -10 -22 -47 -40 -106 -51 -214 -186 -247 -309 -16 -61
-13 -196 6 -261 37 -126 131 -240 246 -298 122 -62 119 -62 1035 -62 l832 0
30 -37 c48 -58 100 -164 121 -249 36 -140 25 -239 -48 -444 -75 -209 -82 -404
-21 -591 72 -222 200 -375 395 -473 179 -90 332 -86 435 11 68 64 87 121 100
297 20 287 53 429 148 635 79 170 103 252 151 506 53 281 78 344 162 405 42
31 123 60 165 60 19 0 23 -5 23 -31 0 -20 10 -40 29 -60 l29 -29 436 0 436 0
32 29 33 29 3 1482 c2 1026 -1 1494 -8 1521 -8 28 -21 46 -43 59 -30 19 -53
20 -445 20 -353 0 -419 -2 -447 -15 -34 -17 -55 -50 -55 -90 0 -18 -5 -25 -19
-25 -55 0 -274 47 -496 106 -559 149 -520 144 -1328 143 -353 -1 -666 -5 -695
-10z m1440 -204 c63 -8 192 -35 288 -60 96 -25 261 -67 365 -94 105 -27 247
-57 318 -67 l127 -18 0 -414 0 -414 29 -29 c51 -51 137 -33 160 33 7 20 11
190 11 495 l0 463 298 -2 297 -3 3 -1367 2 -1368 -300 0 -300 0 0 465 c0 511
0 509 -60 540 -16 8 -34 15 -40 15 -22 0 -78 -32 -87 -48 -4 -9 -10 -204 -13
-432 l-5 -415 -53 -7 c-123 -18 -244 -78 -313 -155 -87 -96 -125 -199 -174
-468 -44 -237 -62 -298 -135 -455 -102 -220 -142 -374 -160 -623 -16 -214 -19
-227 -47 -255 -22 -22 -30 -24 -81 -19 -138 14 -306 143 -376 288 -99 208
-101 380 -6 633 85 228 78 441 -24 662 l-34 72 80 4 c75 3 81 5 109 36 16 18
29 44 29 58 0 32 -24 79 -47 90 -10 5 -493 11 -1073 14 -1055 5 -1055 5 -1102
27 -114 53 -179 151 -179 273 0 87 23 144 86 204 82 80 114 87 453 95 l294 6
29 33 c38 42 39 89 3 132 l-26 31 -261 -2 c-288 -1 -266 -6 -294 66 -18 47
-15 165 6 234 50 161 157 255 306 268 100 9 135 37 135 108 0 27 -8 44 -29 66
-26 25 -36 29 -88 29 -32 0 -76 -5 -98 -10 -22 -5 -41 -7 -43 -6 -1 2 -7 33
-13 68 -20 127 33 282 127 375 59 57 124 86 219 97 73 8 100 25 115 71 10 30
9 41 -7 73 -24 48 -64 62 -153 52 -35 -5 -68 -6 -72 -4 -17 11 -20 116 -4 185
42 189 186 334 369 374 95 21 1282 21 1439 0z"/>
<path d="M4014 3514 c-60 -29 -73 -107 -25 -155 54 -54 140 -32 162 40 14 47
-6 93 -51 116 -36 19 -47 19 -86 -1z"/>
</g>
</svg>
