<?xml version="1.0" standalone="no"?>
<!DOCTYPE svg PUBLIC "-//W3C//DTD SVG 20010904//EN"
 "http://www.w3.org/TR/2001/REC-SVG-20010904/DTD/svg10.dtd">
<svg version="1.0" xmlns="http://www.w3.org/2000/svg"
 width="512.000000pt" height="512.000000pt" viewBox="0 0 512.000000 512.000000"
 preserveAspectRatio="xMidYMid meet">

<g transform="translate(0.000000,512.000000) scale(0.100000,-0.100000)"
fill="#000000" stroke="none">
<path d="M1770 4464 c-39 -17 -72 -45 -103 -89 -22 -30 -22 -31 -27 -815 l-5
-785 -640 -5 c-571 -4 -643 -7 -670 -22 -37 -20 -67 -52 -91 -98 -18 -33 -19
-76 -19 -946 l0 -911 30 -48 c22 -36 45 -57 84 -77 l53 -28 2178 0 2178 0 53
28 c39 20 62 41 84 77 l30 48 3 1306 c2 933 0 1321 -8 1358 -8 36 -23 65 -51
97 -68 78 -53 76 -756 76 l-613 0 0 344 c0 190 -4 356 -9 369 -16 40 -73 99
-116 118 -38 17 -86 19 -795 18 -652 0 -760 -2 -790 -15z m1290 -1904 l0
-1490 -500 0 -500 0 0 1490 0 1490 500 0 500 0 0 -1490z m1420 -425 l0 -1065
-500 0 -500 0 0 1065 0 1065 500 0 500 0 0 -1065z m-2842 -427 l2 -638 -500 0
-500 0 0 640 0 640 498 -2 497 -3 3 -637z"/>
</g>
</svg>
