<?xml version="1.0" standalone="no"?>
<!DOCTYPE svg PUBLIC "-//W3C//DTD SVG 20010904//EN"
 "http://www.w3.org/TR/2001/REC-SVG-20010904/DTD/svg10.dtd">
<svg version="1.0" xmlns="http://www.w3.org/2000/svg"
 width="512.000000pt" height="512.000000pt" viewBox="0 0 512.000000 512.000000"
 preserveAspectRatio="xMidYMid meet">

<g transform="translate(0.000000,512.000000) scale(0.100000,-0.100000)"
fill="#8c8c8c" stroke="none">
<path d="M2002 5102 c-71 -26 -136 -90 -163 -161 -14 -37 -23 -98 -30 -195
-20 -287 -53 -430 -148 -635 -86 -186 -107 -256 -156 -531 -52 -294 -104 -382
-248 -425 -80 -24 -97 -21 -97 16 0 20 -10 40 -29 60 l-29 29 -436 0 -436 0
-32 -29 -33 -29 -3 -1482 c-2 -1026 1 -1494 8 -1521 8 -28 21 -46 43 -59 30
-19 53 -20 445 -20 353 0 419 2 447 15 34 17 55 50 55 90 0 18 5 25 19 25 57
0 282 -49 551 -120 502 -133 425 -125 1255 -125 l710 0 80 23 c122 36 209 86
295 172 138 137 202 287 203 470 0 63 -6 122 -14 148 l-14 43 65 67 c74 76
138 189 166 292 23 89 23 236 0 317 l-19 63 61 65 c151 161 205 426 128 625
-4 11 10 22 47 40 106 51 214 186 247 309 16 61 13 196 -6 261 -37 126 -131
240 -246 298 -122 62 -119 62 -1035 62 l-832 0 -30 37 c-48 58 -100 164 -121
249 -33 130 -23 266 30 389 90 208 102 457 34 657 -48 142 -93 217 -184 309
-172 174 -395 255 -548 201z m256 -228 c104 -51 197 -144 246 -246 101 -211
101 -379 -2 -653 -77 -207 -66 -428 32 -641 l34 -72 -80 -4 c-75 -3 -81 -5
-109 -36 -16 -18 -29 -44 -29 -58 0 -32 24 -79 47 -90 10 -5 493 -11 1073 -14
l1055 -5 50 -23 c107 -49 175 -149 176 -261 2 -135 -71 -239 -201 -286 -36
-13 -105 -18 -337 -23 l-292 -7 -30 -29 c-43 -41 -43 -95 -1 -137 l29 -30 257
2 c285 1 263 6 291 -66 18 -47 15 -165 -6 -234 -50 -161 -154 -253 -303 -267
-104 -11 -138 -38 -138 -109 0 -27 8 -44 29 -66 26 -25 36 -29 88 -29 32 0 76
5 98 10 22 5 41 7 43 6 1 -2 7 -33 13 -68 20 -127 -31 -278 -126 -373 -60 -59
-123 -88 -220 -99 -73 -8 -100 -25 -115 -71 -10 -30 -9 -41 7 -73 24 -48 64
-62 153 -52 35 5 68 6 72 4 17 -11 20 -116 4 -185 -45 -198 -198 -346 -394
-379 -47 -8 -267 -10 -732 -7 -739 4 -700 0 -995 78 -418 110 -548 140 -661
156 l-124 17 0 414 0 414 -29 29 c-51 51 -137 33 -160 -33 -7 -20 -11 -190
-11 -495 l0 -463 -297 2 -298 3 -3 1368 -2 1367 300 0 299 0 3 -481 3 -481 28
-24 c15 -13 39 -27 52 -30 27 -7 90 20 102 44 4 9 10 204 13 432 l5 415 53 7
c125 18 238 73 310 152 89 97 127 198 177 471 44 239 62 300 135 455 102 221
142 374 160 623 16 212 19 226 47 255 22 22 30 24 81 19 35 -4 84 -20 130 -43z"/>
<path d="M998 1767 c-51 -48 -44 -121 14 -157 40 -24 50 -25 93 -5 93 45 60
185 -43 185 -27 0 -47 -7 -64 -23z"/>
</g>
</svg>
