<?xml version="1.0" standalone="no"?>
<!DOCTYPE svg PUBLIC "-//W3C//DTD SVG 20010904//EN"
 "http://www.w3.org/TR/2001/REC-SVG-20010904/DTD/svg10.dtd">
<svg version="1.0" xmlns="http://www.w3.org/2000/svg"
 width="512.000000pt" height="512.000000pt" viewBox="0 0 512.000000 512.000000"
 preserveAspectRatio="xMidYMid meet">

<g transform="translate(0.000000,512.000000) scale(0.100000,-0.100000)"
fill="#000000" stroke="none">
<path d="M2516 5028 c-10 -6 -72 -121 -138 -257 -66 -135 -121 -247 -122 -248
0 -1 -125 -20 -276 -42 -260 -38 -276 -42 -297 -66 -46 -53 -40 -63 180 -276
l202 -197 -44 -263 c-25 -145 -44 -275 -43 -288 1 -14 9 -33 19 -43 34 -37 73
-24 324 108 l239 125 242 -127 c162 -85 251 -127 271 -126 36 1 66 28 69 62 1
14 -18 144 -43 289 l-44 263 203 197 c219 213 226 223 179 276 -21 25 -36 29
-287 66 -146 21 -270 39 -276 39 -6 0 -64 111 -129 246 -66 135 -128 252 -139
260 -24 17 -64 18 -90 2z m144 -439 c52 -104 100 -195 107 -201 8 -6 109 -25
226 -41 117 -17 213 -32 215 -33 2 -1 -65 -69 -148 -151 -84 -81 -156 -158
-161 -170 -5 -14 5 -94 28 -228 19 -113 34 -208 31 -210 -2 -3 -87 39 -188 92
-102 53 -196 96 -210 96 -14 0 -108 -43 -209 -97 -101 -53 -186 -95 -189 -92
-2 3 12 98 31 211 24 135 33 214 28 228 -5 12 -77 89 -160 171 -84 81 -151
149 -149 151 2 1 93 14 203 30 110 15 210 31 222 36 17 6 50 62 120 204 54
107 100 195 103 195 3 0 48 -86 100 -191z"/>
<path d="M1701 2964 c-21 -26 -21 -34 -21 -675 l0 -649 -778 0 -779 0 -21 -23
-22 -23 0 -735 0 -736 23 -21 23 -22 2435 0 2436 0 21 23 22 23 0 1016 0 1017
-26 20 c-26 21 -33 21 -800 21 l-774 0 0 369 c0 357 -1 369 -21 395 l-20 26
-839 0 -839 0 -20 -26z m1579 -1429 l0 -1305 -720 0 -720 0 0 1305 0 1305 720
0 720 0 0 -1305z m1610 -400 l0 -905 -725 0 -725 0 0 905 0 905 725 0 725 0 0
-905z m-3210 -275 l0 -630 -725 0 -725 0 0 623 c0 343 3 627 7 630 3 4 330 7
725 7 l718 0 0 -630z"/>
<path d="M2031 2636 c-8 -10 -10 -307 -9 -1106 3 -1028 4 -1093 21 -1104 12
-8 22 -8 35 0 16 11 17 75 20 1083 l2 1071 494 0 c490 0 495 0 501 20 16 50
21 50 -535 50 -424 0 -520 -2 -529 -14z"/>
<path d="M3630 1841 c-14 -27 -14 -1375 0 -1402 12 -21 40 -25 58 -7 9 9 12
174 12 680 l0 668 491 2 c456 3 493 4 503 21 8 12 8 22 0 35 -10 16 -49 17
-532 20 -507 2 -521 2 -532 -17z"/>
<path d="M425 1288 c-3 -7 -4 -204 -3 -438 l3 -425 30 0 30 0 3 398 2 397 484
0 c453 0 485 1 506 18 19 16 21 22 11 40 l-12 22 -525 0 c-410 0 -526 -3 -529
-12z"/>
</g>
</svg>
