<?xml version="1.0" standalone="no"?>
<!DOCTYPE svg PUBLIC "-//W3C//DTD SVG 20010904//EN"
 "http://www.w3.org/TR/2001/REC-SVG-20010904/DTD/svg10.dtd">
<svg version="1.0" xmlns="http://www.w3.org/2000/svg"
 width="96.000000pt" height="96.000000pt" viewBox="0 0 96.000000 96.000000"
 preserveAspectRatio="xMidYMid meet">

<g transform="translate(0.000000,96.000000) scale(0.100000,-0.100000)"
fill="#000000" stroke="none">
<path d="M209 811 l-29 -29 0 -297 c0 -222 3 -300 13 -311 47 -57 28 -54 319
-54 l268 0 0 30 0 30 -267 2 -268 3 0 25 0 25 268 3 267 2 0 300 0 300 -271 0
-271 0 -29 -29z m511 -271 l0 -240 -240 0 -240 0 0 233 c0 129 3 237 7 240 3
4 111 7 240 7 l233 0 0 -240z"/>
<path d="M452 707 c-6 -6 -29 -59 -51 -117 -32 -83 -41 -118 -41 -167 l0 -63
30 0 c27 0 30 3 30 30 l0 30 60 0 60 0 0 -30 c0 -27 3 -30 30 -30 l30 0 0 63
c0 49 -9 84 -41 167 -45 116 -53 130 -79 130 -10 0 -22 -6 -28 -13z m60 -162
l26 -65 -58 0 -58 0 26 65 c14 36 28 65 32 65 4 0 18 -29 32 -65z"/>
</g>
</svg>
